<svg width="168" height="88" viewBox="0 0 168 88" fill="none" xmlns="http://www.w3.org/2000/svg">
<path d="M0 0H168V0C159.163 0 152 7.16344 152 16V56C152 64.8366 144.837 72 136 72H16C7.16345 72 0 79.1634 0 88V88V0Z" fill="#1C1C1C"/>
<g clip-path="url(#clip0_106_9)">
<path d="M79.778 21L76.2694 24.2932L81.4015 29.095C81.6668 29.3437 81.8773 29.639 82.0209 29.9641C82.1645 30.2892 82.2384 30.6376 82.2384 30.9895C82.2384 31.3414 82.1645 31.6899 82.0209 32.015C81.8773 32.3401 81.6668 32.6354 81.4015 32.8841L76.2545 37.708L79.7619 41.0012L84.9089 36.1761C86.3723 34.7995 87.1942 32.9342 87.1942 30.9895C87.1942 29.0448 86.3723 27.1796 84.9089 25.803L79.778 21Z" fill="white"/>
<path d="M94.0217 29.095L99.1526 24.2932L95.6452 21L90.513 25.803C89.0496 27.1796 88.2277 29.0448 88.2277 30.9895C88.2277 32.9342 89.0496 34.7995 90.513 36.1761L95.6601 41.0012L99.1687 37.708L94.0217 32.8841C93.7564 32.6354 93.5459 32.3401 93.4023 32.015C93.2587 31.6899 93.1848 31.3414 93.1848 30.9895C93.1848 30.6376 93.2587 30.2892 93.4023 29.9641C93.5459 29.639 93.7564 29.3437 94.0217 29.095V29.095Z" fill="white"/>
<path d="M104.608 21L101.1 24.2932L106.231 29.095C106.496 29.3437 106.706 29.639 106.85 29.9641C106.994 30.2892 107.068 30.6376 107.068 30.9895C107.068 31.3414 106.994 31.6899 106.85 32.015C106.706 32.3401 106.496 32.6354 106.231 32.8841L101.085 37.708L104.592 41.0012L109.739 36.1761C111.203 34.7995 112.025 32.9342 112.025 30.9895C112.025 29.0448 111.203 27.1796 109.739 25.803L104.608 21Z" fill="white"/>
<path d="M118.855 32.8841C118.59 32.6354 118.38 32.3401 118.236 32.015C118.092 31.6899 118.018 31.3414 118.018 30.9895C118.018 30.6376 118.092 30.2892 118.236 29.9641C118.38 29.639 118.59 29.3437 118.855 29.095L123.986 24.2932L120.478 21L115.347 25.803C113.883 27.1796 113.061 29.0448 113.061 30.9895C113.061 32.9342 113.883 34.7995 115.347 36.1761L120.494 41.0012L124.001 37.708L118.855 32.8841Z" fill="white"/>
<path d="M66.7104 21.3581L62.9797 21.3673L60.3392 21.3581C58.2678 21.3605 56.2819 22.134 54.8172 23.5088C53.3524 24.8836 52.5283 26.7475 52.5257 28.6917V31.0001V33.3084C52.5283 35.2527 53.3524 37.1166 54.8172 38.4914C56.2819 39.8662 58.2678 40.6397 60.3392 40.6421L64.0699 40.6328L66.7104 40.6421C68.7819 40.6397 70.7678 39.8662 72.2325 38.4914C73.6973 37.1166 74.5213 35.2527 74.524 33.3084V31.0001V28.6917C74.5213 26.7475 73.6973 24.8836 72.2325 23.5088C70.7678 22.134 68.7819 21.3605 66.7104 21.3581V21.3581ZM66.7104 35.9881L64.0699 35.9788L60.3392 35.9881C59.5827 35.9881 58.8571 35.7061 58.3222 35.204C57.7872 34.7019 57.4867 34.0208 57.4867 33.3108V32.2189V31.0001V29.7813V28.6917C57.4867 27.9817 57.7872 27.3006 58.3222 26.7985C58.8571 26.2964 59.5827 26.0144 60.3392 26.0144L62.9797 26.0236L66.7104 26.0144C67.467 26.0144 68.1925 26.2964 68.7275 26.7985C69.2624 27.3006 69.563 27.9817 69.563 28.6917V29.7813V31.0001V32.2189V33.3084C69.5633 33.6602 69.4897 34.0087 69.3465 34.3338C69.2033 34.6589 68.9933 34.9543 68.7283 35.2031C68.4634 35.452 68.1489 35.6494 67.8026 35.7841C67.4564 35.9188 67.0852 35.9881 66.7104 35.9881V35.9881Z" fill="white"/>
<path d="M42.1868 21.3581L38.4574 21.3673L35.8169 21.3581C33.7454 21.3605 31.7596 22.134 30.2948 23.5088C28.8301 24.8836 28.006 26.7475 28.0034 28.6917V40.6433H32.9643V28.6917C32.9643 27.9817 33.2649 27.3006 33.7998 26.7985C34.3348 26.2964 35.0604 26.0144 35.8169 26.0144L38.4574 26.0236L42.1868 26.0144C42.9434 26.0144 43.6689 26.2964 44.2039 26.7985C44.7388 27.3006 45.0394 27.9817 45.0394 28.6917V40.6433H50.0004V28.6917C49.9977 26.7475 49.1737 24.8836 47.7089 23.5088C46.2442 22.134 44.2583 21.3605 42.1868 21.3581V21.3581Z" fill="white"/>
</g>
<defs>
<clipPath id="clip0_106_9">
<rect width="96" height="20" fill="white" transform="translate(28 21)"/>
</clipPath>
</defs>
</svg>
